<?xml version="1.0" encoding="utf-8"?>
<!-- Generator: Adobe Illustrator 22.1.0, SVG Export Plug-In . SVG Version: 6.00 Build 0)  -->
<svg version="1.1" id="Layer_1" xmlns="http://www.w3.org/2000/svg" xmlns:xlink="http://www.w3.org/1999/xlink" x="0px" y="0px"
	 viewBox="0 0 461.5 461.5" style="enable-background:new 0 0 461.5 461.5;" xml:space="preserve">
<style type="text/css">
	.st0{fill:#FFFFFF;}
</style>
<title>pi-1w</title>
<path class="st0" d="M30.2,461.5H0V0h39.6v45.1H7.3v46.6h27.7v46.1H21.1v46.3h-4.6v46.6h4.7v92.5h23.3V0H72v45.1H49v46.5h12
	c1.8,0,1.8,0,1.8,1.8v42.8c0,1.7,0,1.7,1.8,1.7h24.6c0.5,0,1,0,1.6-0.1V0h41.5v45.1h-1.8c-8.2,0-16.5,0-24.7,0
	c-1.1,0-1.3,0.3-1.3,1.4c0,14.6,0,29.1,0,43.7v1.5h13.9v43.2c0,3.1,0,3.1,3,3.1h6.2v46.1h-4.5v46.6h4.6v230.9H90.8V185.2
	c0-0.3,0-0.7-0.1-1H49v46.5h4.4v46.1H49v46.5c4.2,0,8.2,0,12.3,0c1.3,0,1.5,0.4,1.5,1.6c0,29.8,0,59.6,0,89.4v1.8H72v45.5H44.4
	c0-30.2,0-60.5,0-90.7c0-1.1-0.3-1.4-1.4-1.4c-11.4,0-22.8,0-34.2,0c-0.5,0-1.1,0.1-1.6,0.1V416h23v19.6L30.2,461.5z"/>
<path class="st0" d="M178.6,461.5H137c0-0.4,0-0.9,0-1.3V124c0-41.3,0-82.7,0-124h23v45.1h-18.4v46.4c0.1,0,0.3,0,0.4,0
	c8.7,0,17.4,0,26,0c1.2,0,1.4,0.4,1.4,1.4c0,14.3,0,28.6,0,42.8c0,1.9,0,1.9-2,1.9h-21.3v46.4h-4.5v46.4h41.7v-166
	c0-21.5,0-43,0-64.6h4.6v45.2c8.9,0,17.6,0,26.3,0c1.1,0,1.5,0.2,1.5,1.4c0,30,0,59.9,0,89.9v1.3h-23.3v46.3H188v92.7h41.7V1.2
	c0-0.4,0-0.8,0-1.2h37v91.5h-27.8c0,0.5-0.1,0.8-0.1,1.2c0,14.7,0,29.3,0,44c0,1,0.3,1.3,1.3,1.3c5.7,0,11.4,0,17.3,0v46.3h4.6v46.2
	h-18.4v92.8h23v46.3h-4.6v46.4h-18.5v1c0,13.9,0,27.8,0,41.6c0,1,0,2,0.1,3h-13.9c0-0.1,0-0.2,0-0.4c0-14.8,0-29.6,0-44.4
	c0-0.3,0-0.5,0-0.9H225v1.2c0,13.8,0,27.7,0,41.5c0,1,0,1.9,0,2.9h-41.6c0-0.1,0-0.2,0-0.4V278.1c0-0.4,0-0.9-0.1-1.3
	c-4.3,0-8.5,0-12.7,0c-1,0-1.3,0.4-1.3,1.3c0,14.5,0,29,0,43.5v1.5h-23.1v92.9h32.3V461.5z M201.8,369.5h27.9v-1.1
	c0-14.6,0-29.2,0-43.8c0-1.2-0.3-1.5-1.5-1.5c-8.4,0.1-16.9,0.1-25.3,0c-0.9,0-1.1,0.3-1.1,1.2c0,14.4,0,28.9,0,43.3V369.5z"/>
<path class="st0" d="M322.6,0h22.8c0,0.2,0,0.5,0,0.7c0,14.5,0,28.9,0,43.4c0,0.8-0.3,1-1,0.9c-2,0-4,0-6,0h-7v6.3c0,13,0,26,0,39
	c0,0.8,0.1,1.2,1.1,1.2c8.5,0,17,0,25.5,0c0.4,0,0.7,0,1.1,0v46.2h-32.1c0,0.2,0,0.3,0,0.5c0,15,0,29.9,0,44.9c0,1,0.4,1.1,1.2,1.1
	c5.2,0,10.3,0,15.5,0h1.8v46.2H327v46.5h37c0,0.5,0.1,0.8,0.1,1.2c0,14.5,0,29,0,43.5c0,1-0.3,1.4-1.3,1.4c-9.9,0-19.8,0-29.6,0
	h-1.5v92.9h9.2v45.5H276c0-0.6,0.1-1.1,0.1-1.7V1.4c0-0.5,0-0.9-0.1-1.4h18.5v45.2h12.3c1.7,0,1.7,0,1.7,1.7c0,29.9,0,59.8,0,89.6
	c0,1.1,0.3,1.5,1.5,1.5c2.6-0.1,5.2,0,7.8,0v46.2h-27.8v46.6h13.7v46.1h-18.4v46.4h37.2V1.4C322.5,0.9,322.5,0.5,322.6,0z
	 M303.9,369.5v46.4h18.5v-46.4H303.9z"/>
<path class="st0" d="M401,0v45h-4.5v46.3h-14v1.4c0,30,0,60.1,0,90.1c0,1.1,0.3,1.4,1.4,1.4c8.4,0,16.7,0,25.1,0h1.4v1.2
	c0,14.5,0,29,0,43.6c0,1.1-0.3,1.4-1.4,1.4c-4.1,0-8.2,0-12.5,0v46.3h-9.3v46.3h-12.2c-1.7,0-1.7,0-1.7,1.7v44.8h32.4v44
	c0,2.3,0,2.3-2.3,2.3h-19.8c-0.3,0-0.5,0-1,0v45.6h-13.6c0-0.7,0-1.4,0-2V1.6c0-0.5,0-1,0-1.6H401z"/>
<path class="st0" d="M415.2,461.5c0-0.7,0-1.4,0-2V1.6c0-0.5,0-1,0-1.6h23c0,0.3-0.1,0.6-0.1,0.8c0,13.8,0,27.5,0,41.3
	c0,3,0,3-2.9,3c-1.8,0-1.8,0-1.8,1.7c0,14.4,0,28.8,0,43.2v1.5h-13.8V138h37.2v46.4l4.8-0.3v46.6c-0.4-0.1-0.8-0.2-1.3-0.2h-16.2
	c-0.4,0-0.8,0-1.3,0.1v92.7h-23.1v46.5h18.4c0,0.6,0.1,1.2,0.1,1.7c0,14.4,0,28.7,0,43.1c0,1.1-0.3,1.5-1.5,1.5
	c-5.2-0.1-10.3,0-15.5,0h-1.7v1.4v44.3L415.2,461.5z"/>
<path class="st0" d="M224.9,461.5c0-1,0-1.9,0-2.9c0-13.8,0-27.7,0-41.5v-1.2h4.7c0,0.3,0,0.6,0,0.9c0,14.8,0,29.6,0,44.4
	c0,0.1,0,0.2,0,0.4H224.9z"/>
</svg>
