<svg id="Layer_1" data-name="Layer 1" xmlns="http://www.w3.org/2000/svg" viewBox="0 0 458.98 461.44"><defs><style>.cls-1{fill:#fff;}</style></defs><title>pi-2w</title><path class="cls-1" d="M507.47,558.34a21,21,0,1,0-20.91-21A21.1,21.1,0,0,0,507.47,558.34Z" transform="translate(-69.6 -190.09)"/><path class="cls-1" d="M113.86,398a21,21,0,1,0,20.53-21.47A21.07,21.07,0,0,0,113.86,398Z" transform="translate(-69.6 -190.09)"/><path class="cls-1" d="M461,516.32a21,21,0,1,0,21,21A21,21,0,0,0,461,516.32Z" transform="translate(-69.6 -190.09)"/><path class="cls-1" d="M507.52,325.29a21,21,0,1,0-21-21A21.07,21.07,0,0,0,507.52,325.29Z" transform="translate(-69.6 -190.09)"/><path class="cls-1" d="M414.15,329.88a21,21,0,1,0,21.27,21.06A21,21,0,0,0,414.15,329.88Z" transform="translate(-69.6 -190.09)"/><path class="cls-1" d="M134.85,236.71a21,21,0,1,0,21,21.2C156,246.84,146.72,236.51,134.85,236.71Z" transform="translate(-69.6 -190.09)"/><path class="cls-1" d="M227.92,278.71A21,21,0,1,0,207,257.8,21,21,0,0,0,227.92,278.71Z" transform="translate(-69.6 -190.09)"/><path class="cls-1" d="M414.45,423.12a21,21,0,1,0,21,21A21.12,21.12,0,0,0,414.45,423.12Z" transform="translate(-69.6 -190.09)"/><path class="cls-1" d="M228.06,516.32A21,21,0,1,0,249,537.26,21,21,0,0,0,228.06,516.32Z" transform="translate(-69.6 -190.09)"/><path class="cls-1" d="M134.92,469.73a21,21,0,1,0,21,21.21C156,479.75,146.63,469.61,134.92,469.73Z" transform="translate(-69.6 -190.09)"/><path class="cls-1" d="M507.33,609.55a21,21,0,1,0,21.23,21.83A21,21,0,0,0,507.33,609.55Z" transform="translate(-69.6 -190.09)"/><path class="cls-1" d="M274.64,423.13a21,21,0,1,0,21,21A21.1,21.1,0,0,0,274.64,423.13Z" transform="translate(-69.6 -190.09)"/><path class="cls-1" d="M228.32,562.91A21,21,0,1,0,249,584,21,21,0,0,0,228.32,562.91Z" transform="translate(-69.6 -190.09)"/><path class="cls-1" d="M274.7,232.11a21,21,0,1,0-21.08-20.86A21.22,21.22,0,0,0,274.7,232.11Z" transform="translate(-69.6 -190.09)"/><path class="cls-1" d="M228.42,376.51a21,21,0,1,0-.36,42c11.14.11,20.65-9.28,21-20.33A21.11,21.11,0,0,0,228.42,376.51Z" transform="translate(-69.6 -190.09)"/><path class="cls-1" d="M274.67,376.5a21,21,0,1,0,21,21.2A21,21,0,0,0,274.67,376.5Z" transform="translate(-69.6 -190.09)"/><path class="cls-1" d="M321.54,285.6a18.78,18.78,0,0,0-19,18.57c-.09,10.16,8.42,18.88,18.55,18.77a18.67,18.67,0,0,0,.48-37.34Z" transform="translate(-69.6 -190.09)"/><path class="cls-1" d="M414.78,565.26a18.68,18.68,0,1,0,18.3,19.19A18.75,18.75,0,0,0,414.78,565.26Z" transform="translate(-69.6 -190.09)"/><path class="cls-1" d="M255.94,351.23a18.7,18.7,0,1,0,18.7-19A18.77,18.77,0,0,0,255.94,351.23Z" transform="translate(-69.6 -190.09)"/><path class="cls-1" d="M134.73,425.41a18.69,18.69,0,1,0,18.78,18.73A18.64,18.64,0,0,0,134.73,425.41Z" transform="translate(-69.6 -190.09)"/><path class="cls-1" d="M209.35,350.37a18.69,18.69,0,1,0,37.37.49,18.69,18.69,0,0,0-37.37-.49Z" transform="translate(-69.6 -190.09)"/><path class="cls-1" d="M88.59,276.35A18.67,18.67,0,1,0,69.6,258,18.76,18.76,0,0,0,88.59,276.35Z" transform="translate(-69.6 -190.09)"/><path class="cls-1" d="M367.42,472.05a18.67,18.67,0,1,0,19,17.29A18.59,18.59,0,0,0,367.42,472.05Z" transform="translate(-69.6 -190.09)"/><path class="cls-1" d="M88.73,565.26A18.68,18.68,0,1,0,107,584.38,18.79,18.79,0,0,0,88.73,565.26Z" transform="translate(-69.6 -190.09)"/><path class="cls-1" d="M414.49,276.37c10,0,18.54-8.47,18.57-18.39a18.66,18.66,0,1,0-18.57,18.39Z" transform="translate(-69.6 -190.09)"/><path class="cls-1" d="M395.71,537.48c.08,9.83,8.52,18.63,18.56,18.5a18.67,18.67,0,0,0,.32-37.34A19,19,0,0,0,395.71,537.48Z" transform="translate(-69.6 -190.09)"/><path class="cls-1" d="M321.4,614.2a16.36,16.36,0,1,0-.09,32.72A16.64,16.64,0,0,0,337.56,631,16.44,16.44,0,0,0,321.4,614.2Z" transform="translate(-69.6 -190.09)"/><path class="cls-1" d="M461.42,614.19a16.35,16.35,0,1,0,15.88,16.45A16.4,16.4,0,0,0,461.42,614.19Z" transform="translate(-69.6 -190.09)"/><path class="cls-1" d="M321.33,427.75a16.53,16.53,0,0,0-16.47,16.08c-.14,8.95,7.42,16.79,16.37,16.61,8.53.17,16-7.17,16.33-15.67A16.53,16.53,0,0,0,321.33,427.75Z" transform="translate(-69.6 -190.09)"/><path class="cls-1" d="M460.76,320.62a16.34,16.34,0,1,0-16.17-16.37A16.37,16.37,0,0,0,460.76,320.62Z" transform="translate(-69.6 -190.09)"/><path class="cls-1" d="M367.78,413.86a16.35,16.35,0,1,0,0-32.69c-8.9-.1-16.4,7.54-16.31,16.64A16.52,16.52,0,0,0,367.78,413.86Z" transform="translate(-69.6 -190.09)"/><path class="cls-1" d="M337.56,490.89A16.36,16.36,0,1,0,321.23,507C330.05,507.21,337.49,499.57,337.56,490.89Z" transform="translate(-69.6 -190.09)"/><path class="cls-1" d="M461.08,334.58a16.33,16.33,0,1,0,16.23,16.48A16.27,16.27,0,0,0,461.08,334.58Z" transform="translate(-69.6 -190.09)"/><path class="cls-1" d="M181.65,241.35a16.34,16.34,0,1,0-.17,32.67,16.34,16.34,0,0,0,.17-32.67Z" transform="translate(-69.6 -190.09)"/><path class="cls-1" d="M148.88,304.34a14,14,0,1,0-13.84,14A14.19,14.19,0,0,0,148.88,304.34Z" transform="translate(-69.6 -190.09)"/><path class="cls-1" d="M447,490.28a14,14,0,1,0,28.06.41,14,14,0,0,0-28.06-.41Z" transform="translate(-69.6 -190.09)"/><path class="cls-1" d="M135.12,569.88a14,14,0,1,0,13.78,14.4A14.12,14.12,0,0,0,135.12,569.88Z" transform="translate(-69.6 -190.09)"/><path class="cls-1" d="M134.78,551.37a14.18,14.18,0,0,0,14.1-14,14,14,0,1,0-28.06.05A14.26,14.26,0,0,0,134.78,551.37Z" transform="translate(-69.6 -190.09)"/><path class="cls-1" d="M274.06,523.3a14,14,0,1,0,14.56,14.06A14.17,14.17,0,0,0,274.06,523.3Z" transform="translate(-69.6 -190.09)"/><path class="cls-1" d="M414.53,616.52a14,14,0,1,0,13.91,13.81A14.15,14.15,0,0,0,414.53,616.52Z" transform="translate(-69.6 -190.09)"/><path class="cls-1" d="M507.72,271.73a14,14,0,0,0-.18-28.06,14,14,0,1,0,.18,28.06Z" transform="translate(-69.6 -190.09)"/><path class="cls-1" d="M367.78,225.08a14,14,0,1,0-14-13.67A14,14,0,0,0,367.78,225.08Z" transform="translate(-69.6 -190.09)"/><path class="cls-1" d="M88.21,383.51a14,14,0,1,0,14.1,13.89A14,14,0,0,0,88.21,383.51Z" transform="translate(-69.6 -190.09)"/><path class="cls-1" d="M228,222.8a11.72,11.72,0,0,0,0-23.43c-6.14-.15-11.54,5.21-11.66,11.58A11.92,11.92,0,0,0,228,222.8Z" transform="translate(-69.6 -190.09)"/><path class="cls-1" d="M414.71,222.79a11.85,11.85,0,0,0,11.37-12.36c-.16-6.05-5.74-11.18-12-11.07a11.72,11.72,0,0,0,.67,23.43Z" transform="translate(-69.6 -190.09)"/><path class="cls-1" d="M507.25,222.78a11.71,11.71,0,1,0-11.36-12.17A11.8,11.8,0,0,0,507.25,222.78Z" transform="translate(-69.6 -190.09)"/><path class="cls-1" d="M76.61,350.84c-.27,5.63,4.77,11.78,11.7,11.73a11.68,11.68,0,1,0-11.7-11.73Z" transform="translate(-69.6 -190.09)"/><path class="cls-1" d="M87.94,479a11.69,11.69,0,1,0,12,11.62A11.78,11.78,0,0,0,87.94,479Z" transform="translate(-69.6 -190.09)"/><path class="cls-1" d="M495.87,583.51a11.68,11.68,0,1,0,23.36.63,11.72,11.72,0,0,0-11.66-11.89A11.9,11.9,0,0,0,495.87,583.51Z" transform="translate(-69.6 -190.09)"/><path class="cls-1" d="M88.27,432.45a11.69,11.69,0,1,0,11.67,11.72A11.66,11.66,0,0,0,88.27,432.45Z" transform="translate(-69.6 -190.09)"/><path class="cls-1" d="M426.06,397.94a11.67,11.67,0,1,0-12.29,11.25A11.72,11.72,0,0,0,426.06,397.94Z" transform="translate(-69.6 -190.09)"/><path class="cls-1" d="M321.25,341.55a9.41,9.41,0,0,0-9.41,9.2,9.31,9.31,0,0,0,9.37,9.52,9.45,9.45,0,0,0,9.38-9.77A9.58,9.58,0,0,0,321.25,341.55Z" transform="translate(-69.6 -190.09)"/><path class="cls-1" d="M367.71,574.59a9.37,9.37,0,1,0,9.44,9.18A9.41,9.41,0,0,0,367.71,574.59Z" transform="translate(-69.6 -190.09)"/><path class="cls-1" d="M358.4,444a9.48,9.48,0,0,0,9.38,9.47,9.37,9.37,0,0,0,9.36-9.31A9.28,9.28,0,0,0,368,434.8,9.47,9.47,0,0,0,358.4,444Z" transform="translate(-69.6 -190.09)"/><path class="cls-1" d="M498.23,397.39a9.33,9.33,0,1,0,10.08-9.23A9.45,9.45,0,0,0,498.23,397.39Z" transform="translate(-69.6 -190.09)"/><path class="cls-1" d="M134.63,220.42a9.45,9.45,0,0,0,9.62-9.5c.09-4.79-4.28-9.1-9.32-9.19a9.35,9.35,0,0,0-.3,18.69Z" transform="translate(-69.6 -190.09)"/><path class="cls-1" d="M451.62,444a9.46,9.46,0,0,0,9.23,9.51,9.35,9.35,0,1,0-9.23-9.51Z" transform="translate(-69.6 -190.09)"/><path class="cls-1" d="M180.91,295a9.38,9.38,0,0,0-8.79,9.78c.28,5.05,4.74,9.19,9.58,8.9a9.35,9.35,0,1,0-.79-18.68Z" transform="translate(-69.6 -190.09)"/><path class="cls-1" d="M507.41,453.46a9.36,9.36,0,1,0,0-18.72c-4.76-.1-9.12,4.25-9.21,9.2A9.4,9.4,0,0,0,507.41,453.46Z" transform="translate(-69.6 -190.09)"/><path class="cls-1" d="M134.83,621.19a9.3,9.3,0,0,0-9.28,9.41,9.32,9.32,0,1,0,9.28-9.41Z" transform="translate(-69.6 -190.09)"/><path class="cls-1" d="M460.85,267a9.12,9.12,0,0,0,9.44-9.25,9.32,9.32,0,1,0-18.64.07A9.12,9.12,0,0,0,460.85,267Z" transform="translate(-69.6 -190.09)"/><path class="cls-1" d="M274.6,250.65a7,7,0,1,0,7,7.09A7,7,0,0,0,274.6,250.65Z" transform="translate(-69.6 -190.09)"/><path class="cls-1" d="M321.36,390.5a7,7,0,1,0,6.84,7A7,7,0,0,0,321.36,390.5Z" transform="translate(-69.6 -190.09)"/><path class="cls-1" d="M374.79,304.21a7.1,7.1,0,0,0-7.14-7,7.19,7.19,0,0,0-6.87,7.29,7.26,7.26,0,0,0,7.11,6.83A7.13,7.13,0,0,0,374.79,304.21Z" transform="translate(-69.6 -190.09)"/><path class="cls-1" d="M274.53,297.25a7.05,7.05,0,0,0,.14,14.1,7.19,7.19,0,0,0,7-7.32A7.1,7.1,0,0,0,274.53,297.25Z" transform="translate(-69.6 -190.09)"/><path class="cls-1" d="M235.06,304a7.25,7.25,0,0,0-7-6.79,7.06,7.06,0,1,0,.17,14.12A7.24,7.24,0,0,0,235.06,304Z" transform="translate(-69.6 -190.09)"/><path class="cls-1" d="M461,218.08a7.12,7.12,0,0,0,7-7.15c.05-3.75-3.46-7-7.3-6.86a7,7,0,0,0,.29,14Z" transform="translate(-69.6 -190.09)"/><path class="cls-1" d="M235.1,490.75c.17-3.17-3.44-7.46-7.19-7.06-3.8-.26-7.06,4-6.92,7.14a7.06,7.06,0,0,0,14.11-.08Z" transform="translate(-69.6 -190.09)"/><path class="cls-1" d="M181.45,390.5a7,7,0,1,0,7,6.95A7.11,7.11,0,0,0,181.45,390.5Z" transform="translate(-69.6 -190.09)"/><path class="cls-1" d="M314.2,584a7,7,0,0,0,14,0,7,7,0,1,0-14,0Z" transform="translate(-69.6 -190.09)"/><path class="cls-1" d="M367.9,264.73a7.12,7.12,0,0,0,6.88-7c.21-3.87-3.34-7-6.94-7.07a7,7,0,1,0,.06,14.09Z" transform="translate(-69.6 -190.09)"/><path class="cls-1" d="M88.43,623.53a7,7,0,1,0-.22,14,7.09,7.09,0,0,0,7.12-7A7.17,7.17,0,0,0,88.43,623.53Z" transform="translate(-69.6 -190.09)"/><path class="cls-1" d="M181.35,625.78a5,5,0,0,0-4.63,4.73,4.9,4.9,0,0,0,4.73,4.74,4.75,4.75,0,0,0,4.66-4.76A4.84,4.84,0,0,0,181.35,625.78Z" transform="translate(-69.6 -190.09)"/><path class="cls-1" d="M93,304.34A4.69,4.69,0,1,0,88.32,309,4.76,4.76,0,0,0,93,304.34Z" transform="translate(-69.6 -190.09)"/><path class="cls-1" d="M409.73,304.25a4.68,4.68,0,0,0,4.55,4.73,4.69,4.69,0,1,0,.1-9.37A4.66,4.66,0,0,0,409.73,304.25Z" transform="translate(-69.6 -190.09)"/><path class="cls-1" d="M176.73,490.76a4.69,4.69,0,1,0,9.38-.06,4.65,4.65,0,0,0-4.52-4.64A4.77,4.77,0,0,0,176.73,490.76Z" transform="translate(-69.6 -190.09)"/><path class="cls-1" d="M181.52,532.66a4.68,4.68,0,1,0,4.62,4.65A4.69,4.69,0,0,0,181.52,532.66Z" transform="translate(-69.6 -190.09)"/><path class="cls-1" d="M372.55,537.49a4.89,4.89,0,0,0-4.76-4.85,4.81,4.81,0,0,0-4.72,4.49,4.74,4.74,0,0,0,9.48.36Z" transform="translate(-69.6 -190.09)"/><path class="cls-1" d="M186.14,350.86a4.79,4.79,0,0,0-4.7-4.64,4.68,4.68,0,1,0,0,9.36A4.66,4.66,0,0,0,186.14,350.86Z" transform="translate(-69.6 -190.09)"/><path class="cls-1" d="M181.53,579.21a4.92,4.92,0,0,0-4.81,4.64,4.83,4.83,0,0,0,4.57,4.76,4.72,4.72,0,0,0,4.83-4.44A4.84,4.84,0,0,0,181.53,579.21Z" transform="translate(-69.6 -190.09)"/><path class="cls-1" d="M181.44,439.43a4.83,4.83,0,0,0-4.72,4.71,4.89,4.89,0,0,0,4.77,4.69,4.7,4.7,0,0,0-.05-9.4Z" transform="translate(-69.6 -190.09)"/><path class="cls-1" d="M321.23,215.79a5,5,0,0,0,4.72-4.68,4.78,4.78,0,0,0-4.73-4.7,4.72,4.72,0,0,0-4.71,4.73A4.87,4.87,0,0,0,321.23,215.79Z" transform="translate(-69.6 -190.09)"/><path class="cls-1" d="M465.68,584a4.9,4.9,0,0,0-4.67-4.81,4.83,4.83,0,0,0-4.72,4.63,4.7,4.7,0,0,0,9.39.18Z" transform="translate(-69.6 -190.09)"/><path class="cls-1" d="M316.55,257.66a4.67,4.67,0,0,0,9.34.13,4.64,4.64,0,0,0-4.73-4.78A4.74,4.74,0,0,0,316.55,257.66Z" transform="translate(-69.6 -190.09)"/><path class="cls-1" d="M274.67,628.17a2.58,2.58,0,0,0-2.43,2.32,2.41,2.41,0,0,0,2.34,2.38,2.46,2.46,0,0,0,2.44-2.29A2.58,2.58,0,0,0,274.67,628.17Z" transform="translate(-69.6 -190.09)"/><path class="cls-1" d="M227.94,628.18a2.53,2.53,0,0,0-2.27,2.35,2.42,2.42,0,0,0,2.35,2.36,2.36,2.36,0,1,0-.08-4.71Z" transform="translate(-69.6 -190.09)"/><path class="cls-1" d="M416.74,490.78a2.42,2.42,0,0,0-2.33-2.41,2.45,2.45,0,0,0-2.39,2.34,2.36,2.36,0,0,0,4.72.07Z" transform="translate(-69.6 -190.09)"/><path class="cls-1" d="M463.33,397.47a2.49,2.49,0,0,0-2.23-2.33,2.36,2.36,0,0,0-.22,4.72A2.45,2.45,0,0,0,463.33,397.47Z" transform="translate(-69.6 -190.09)"/><path class="cls-1" d="M181.45,213.4a2.32,2.32,0,0,0,2.3-2.37,2.34,2.34,0,0,0-2.33-2.35,2.42,2.42,0,0,0-2.32,2.39A2.38,2.38,0,0,0,181.45,213.4Z" transform="translate(-69.6 -190.09)"/><path class="cls-1" d="M88.31,213.41a2.32,2.32,0,0,0,2.31-2.36,2.45,2.45,0,0,0-2.36-2.36,2.52,2.52,0,0,0-2.35,2.41A2.44,2.44,0,0,0,88.31,213.41Z" transform="translate(-69.6 -190.09)"/><path class="cls-1" d="M365.46,350.93a2.26,2.26,0,0,0,2.41,2.27,2.42,2.42,0,0,0,2.31-2.28,2.56,2.56,0,0,0-2.39-2.39A2.45,2.45,0,0,0,365.46,350.93Z" transform="translate(-69.6 -190.09)"/><path class="cls-1" d="M509.89,350.94a2.42,2.42,0,0,0-2.19-2.4,2.36,2.36,0,0,0-2.45,2.25,2.29,2.29,0,0,0,2.24,2.43A2.33,2.33,0,0,0,509.89,350.94Z" transform="translate(-69.6 -190.09)"/></svg>