<?xml version="1.0" encoding="utf-8"?>
<!-- Generator: Adobe Illustrator 22.1.0, SVG Export Plug-In . SVG Version: 6.00 Build 0)  -->
<svg version="1.1" id="Layer_1" xmlns="http://www.w3.org/2000/svg" xmlns:xlink="http://www.w3.org/1999/xlink" x="0px" y="0px"
	 viewBox="0 0 200 200" style="enable-background:new 0 0 200 200;" xml:space="preserve">
<style type="text/css">
	.st0{fill:#FFFFFF;}
</style>
<title>buton-ring2</title>
<path class="st0" d="M74.6,18.3l3.7,10l-1,0.4L75.6,24l-5.9,2.2l1.7,4.7l-1,0.4l-3.6-10l1-0.4l1.6,4.4l5.9-2.2l-1.6-4.5L74.6,18.3z"
	/>
<path class="st0" d="M85.9,16.5l-3.7,0.8l2.1,9.5l-1,0.2l-2.1-9.5l-3.7,0.8l-0.2-0.9l8.4-1.9L85.9,16.5z"/>
<path class="st0" d="M98.7,25.1L98,16.5l-3.4,7L94,23.5l-4.4-6.4l0.6,8.7l-1,0.1l-0.8-10.6l1.1-0.1l4.7,7l3.6-7.6l1.1-0.1L99.8,25
	L98.7,25.1z"/>
<path class="st0" d="M102.1,25.2l0.7-10.6l1,0.1l-0.6,9.7l6.1,0.4l-0.1,0.9L102.1,25.2z"/>
<path class="st0" d="M117.6,21.9c0,0.2-0.2,0.5-0.3,0.6c-0.2,0.2-0.4,0.3-0.6,0.4c-0.2,0.1-0.5,0.1-0.7,0c-0.2,0-0.4-0.2-0.6-0.3
	c-0.2-0.2-0.3-0.4-0.4-0.6c-0.1-0.2-0.1-0.5,0-0.7c0-0.2,0.2-0.4,0.3-0.6c0.2-0.2,0.4-0.3,0.6-0.4c0.2-0.1,0.5-0.1,0.7,0
	c0.2,0,0.4,0.2,0.6,0.3c0.2,0.2,0.3,0.4,0.4,0.6C117.7,21.5,117.7,21.7,117.6,21.9z"/>
<path class="st0" d="M123.8,23.2c0.5-1.2,1.4-2.3,2.5-2.9c0.6-0.3,1.2-0.5,1.9-0.6c0.7-0.1,1.5,0,2.2,0.3c0.8,0.3,1.5,0.8,2.1,1.5
	c0.5,0.6,0.7,1.3,0.8,2.1l-0.9,0.2c0-0.5-0.2-0.9-0.4-1.4c-0.2-0.4-0.5-0.7-0.8-0.9c-0.3-0.2-0.6-0.4-1-0.6
	c-0.5-0.2-1.1-0.3-1.7-0.2c-0.5,0.1-1,0.2-1.5,0.5c-0.5,0.3-0.9,0.6-1.3,1.1c-0.3,0.4-0.6,0.9-0.8,1.4c-0.2,0.5-0.3,1.1-0.3,1.7
	c0,0.6,0.1,1.1,0.3,1.6c0.2,0.5,0.5,1,0.8,1.4c0.4,0.4,0.8,0.7,1.4,0.9c0.4,0.1,0.8,0.2,1.2,0.2c0.5,0,0.9-0.1,1.3-0.2
	c0.5-0.2,0.9-0.4,1.2-0.8l0.7,0.7c-0.4,0.4-0.9,0.7-1.4,0.9c-0.6,0.2-1.1,0.3-1.7,0.3c-0.6,0-1.1-0.1-1.6-0.3
	c-0.7-0.2-1.3-0.6-1.7-1.1c-0.5-0.5-0.8-1.1-1.1-1.7C123.3,25.9,123.3,24.5,123.8,23.2L123.8,23.2z"/>
<path class="st0" d="M141.5,27.5c-0.1-0.2-0.1-0.4-0.3-0.7c-0.1-0.2-0.3-0.4-0.4-0.6c-0.2-0.2-0.4-0.4-0.6-0.6
	c-0.2-0.2-0.5-0.4-0.8-0.5c-0.6-0.4-1.3-0.6-2.1-0.5c-0.6,0.1-1,0.5-1.3,1c-0.2,0.3-0.2,0.7-0.2,1c0.1,0.4,0.3,0.7,0.6,1
	c0.3,0.3,0.7,0.7,1.3,1.2c0.5,0.4,1,0.9,1.5,1.4c0.4,0.4,0.6,0.9,0.7,1.4c0.1,0.5,0,1.1-0.3,1.6c-0.2,0.4-0.5,0.7-0.9,1
	c-0.3,0.2-0.7,0.4-1.1,0.4c-0.4,0-0.9,0-1.3-0.1c-0.5-0.1-1-0.3-1.4-0.6c-0.5-0.2-0.9-0.5-1.3-0.9c-0.4-0.3-0.7-0.7-1-1.1
	c-0.3-0.4-0.5-0.9-0.7-1.3l0.9-0.5c0.1,0.3,0.2,0.6,0.3,0.8c0.2,0.3,0.4,0.6,0.6,0.8c0.2,0.3,0.5,0.5,0.8,0.8c0.3,0.2,0.6,0.5,1,0.6
	c0.6,0.4,1.3,0.5,2,0.5c0.6,0,1-0.4,1.3-0.9c0.2-0.3,0.3-0.7,0.2-1.1c-0.1-0.4-0.3-0.8-0.6-1.1c-0.4-0.4-0.9-0.9-1.3-1.3
	c-0.5-0.4-1-0.9-1.4-1.4c-0.3-0.4-0.5-0.8-0.6-1.3c-0.1-0.5,0-1,0.3-1.4c0.3-0.5,0.7-1,1.2-1.3c0.5-0.3,1.1-0.4,1.7-0.3
	c0.7,0.1,1.3,0.3,1.9,0.6c0.4,0.2,0.8,0.5,1.1,0.7c0.3,0.3,0.6,0.6,0.8,0.9c0.2,0.3,0.4,0.7,0.6,1.1L141.5,27.5z"/>
<path class="st0" d="M149.7,32.9c0-0.2-0.1-0.5-0.2-0.7c-0.1-0.2-0.2-0.5-0.4-0.7c-0.2-0.2-0.3-0.4-0.5-0.7
	c-0.2-0.2-0.4-0.4-0.7-0.6c-0.6-0.5-1.3-0.7-2-0.7c-0.6,0-1.1,0.3-1.4,0.8c-0.2,0.3-0.3,0.6-0.3,1c0.1,0.4,0.2,0.7,0.5,1
	c0.3,0.4,0.6,0.8,1.1,1.3c0.5,0.5,0.9,1,1.3,1.6c0.3,0.4,0.5,0.9,0.6,1.4c0,0.5-0.2,1.1-0.5,1.5c-0.3,0.4-0.6,0.7-1,0.9
	c-0.4,0.2-0.8,0.3-1.2,0.3c-0.4,0-0.9-0.1-1.3-0.3c-0.5-0.2-0.9-0.4-1.4-0.7c-0.4-0.3-0.8-0.6-1.2-1c-0.3-0.4-0.6-0.8-0.9-1.2
	c-0.2-0.4-0.4-0.9-0.6-1.4l0.9-0.4c0.1,0.3,0.2,0.6,0.3,0.8c0.1,0.3,0.3,0.6,0.5,0.9c0.2,0.3,0.4,0.6,0.7,0.9
	c0.3,0.3,0.6,0.5,0.9,0.8c0.5,0.4,1.2,0.7,1.9,0.7c0.6,0,1.1-0.3,1.4-0.7c0.2-0.3,0.3-0.7,0.3-1.1c-0.1-0.4-0.3-0.8-0.5-1.1
	c-0.4-0.5-0.8-1-1.2-1.4c-0.4-0.5-0.9-1-1.2-1.5c-0.3-0.4-0.4-0.9-0.5-1.3c0-0.5,0.2-1,0.5-1.3c0.3-0.5,0.8-0.9,1.3-1.1
	c0.5-0.2,1.1-0.2,1.7-0.1c0.7,0.2,1.3,0.4,1.8,0.8c0.4,0.2,0.7,0.5,1,0.9c0.3,0.3,0.5,0.6,0.7,1c0.2,0.3,0.3,0.7,0.4,1.1L149.7,32.9
	z"/>
<path class="st0" d="M155.3,42.1c-0.2,0.2-0.4,0.3-0.6,0.4c-0.2,0.1-0.5,0.1-0.7,0c-0.2-0.1-0.4-0.2-0.6-0.3
	c-0.2-0.2-0.3-0.4-0.4-0.6c-0.1-0.2-0.1-0.5,0-0.7c0-0.2,0.2-0.5,0.3-0.6c0.2-0.2,0.4-0.3,0.6-0.4c0.2-0.1,0.5-0.1,0.7,0
	c0.2,0,0.4,0.2,0.6,0.3c0.2,0.2,0.3,0.4,0.4,0.6c0.1,0.2,0.1,0.5,0,0.7C155.6,41.7,155.5,41.9,155.3,42.1z"/>
<path class="st0" d="M168.2,49.7l-2.4-2.9l-7.5,6.2l-0.7-0.8l7.5-6.2l-2.4-2.9l0.7-0.6l5.5,6.7L168.2,49.7z"/>
<path class="st0" d="M158.9,57.6l0.2,0.3c0,0.1,0.1,0.2,0.2,0.2c0.1,0.1,0.2,0.2,0.4,0.2c0.3,0,0.5,0,0.8-0.1
	c0.4-0.1,0.9-0.2,1.6-0.3l4.6-7.2l0.6,0.9l-4,6.2l7.1-1.6l0.6,0.8l-10.6,2.3c-0.2,0-0.4,0-0.6,0c-0.2,0-0.4-0.1-0.6-0.2
	c-0.2-0.1-0.4-0.3-0.6-0.5c-0.1-0.1-0.1-0.1-0.2-0.2s-0.1-0.2-0.2-0.3L158.9,57.6z"/>
<path class="st0" d="M166.7,66.2c-0.3-0.5-0.4-1.2-0.4-1.8c0.1-0.6,0.2-1.2,0.6-1.7l-4.3,2.2l-0.5-0.9l9.7-5.1l0.4,0.8l-1.4,0.7
	c0.6,0,1.1,0.2,1.6,0.6c0.9,0.6,1.5,1.6,1.6,2.7c0,0.5-0.1,1-0.3,1.5c-0.2,0.5-0.5,0.9-0.8,1.3c-0.3,0.4-0.8,0.7-1.2,0.9
	c-0.6,0.3-1.3,0.5-2,0.5c-0.6,0-1.3-0.1-1.9-0.4C167.4,67.3,167,66.8,166.7,66.2z M167.3,65.5c0.2,0.4,0.4,0.7,0.8,0.9
	c0.3,0.2,0.6,0.4,1,0.4c0.4,0.1,0.8,0.1,1.1,0c0.4-0.1,0.8-0.2,1.1-0.4c0.4-0.2,0.7-0.4,1-0.7c0.3-0.3,0.5-0.6,0.6-1
	c0.1-0.4,0.2-0.8,0.2-1.1c0-0.4-0.1-0.8-0.3-1.1c-0.1-0.2-0.3-0.5-0.5-0.7c-0.2-0.2-0.5-0.4-0.7-0.5c-0.3-0.1-0.5-0.2-0.8-0.3
	c-0.3,0-0.5,0-0.8,0.1l-2.1,1.1c-0.2,0.3-0.4,0.6-0.6,1c-0.1,0.4-0.2,0.8-0.2,1.2C167.1,64.8,167.2,65.1,167.3,65.5L167.3,65.5z"/>
<path class="st0" d="M170.1,73.8c-0.4-1-0.3-2.1,0.1-3c0.2-0.5,0.5-0.9,0.9-1.2c0.4-0.4,0.9-0.6,1.4-0.8c0.6-0.2,1.3-0.3,2-0.2
	c0.7,0.1,1.3,0.4,1.9,0.8c0.6,0.4,1,1,1.2,1.7c0.3,0.7,0.3,1.4,0.2,2.1c-0.1,0.7-0.4,1.3-0.9,1.8c-0.4,0.5-1,0.9-1.7,1.2l-0.2,0.1
	c-0.1,0-0.1,0-0.2,0.1l-2.4-6.3c-0.5,0.2-0.9,0.6-1.2,1c-0.3,0.4-0.5,0.8-0.6,1.3c-0.1,0.5,0,1,0.1,1.4c0.2,0.5,0.5,0.9,0.9,1.2
	c0.4,0.3,0.8,0.5,1.3,0.5l0.1,0.9c-0.4,0-0.8-0.1-1.2-0.3c-0.4-0.2-0.8-0.5-1.1-0.8C170.4,74.7,170.2,74.3,170.1,73.8z M173.2,69.6
	l2,5.4c0.5-0.2,0.9-0.6,1.2-1c0.3-0.4,0.5-0.8,0.6-1.3c0.1-0.5,0-1-0.2-1.4c-0.2-0.5-0.5-0.9-0.8-1.2c-0.4-0.3-0.8-0.5-1.3-0.6
	C174.2,69.3,173.7,69.4,173.2,69.6z"/>
<path class="st0" d="M181.9,82.8c0.1-0.2,0.2-0.4,0.3-0.6c0.1-0.2,0.2-0.5,0.2-0.7c0-0.3,0-0.6,0-0.8c0-0.3-0.1-0.6-0.1-0.9
	c-0.1-0.7-0.5-1.4-1-1.9c-0.4-0.3-1-0.4-1.6-0.3c-0.3,0.1-0.7,0.3-0.9,0.5c-0.2,0.3-0.3,0.7-0.3,1.1c0,0.5-0.1,1,0,1.7
	c0,0.7,0,1.4-0.1,2.1c-0.1,0.5-0.2,1-0.6,1.4c-0.4,0.4-0.8,0.7-1.4,0.8c-0.4,0.1-0.9,0.1-1.3,0c-0.4-0.1-0.8-0.3-1.1-0.6
	c-0.3-0.3-0.6-0.7-0.8-1.1c-0.2-0.5-0.4-1-0.5-1.5c-0.1-0.5-0.2-1-0.2-1.6c0-0.5,0-1,0.1-1.5c0.1-0.5,0.3-1,0.5-1.4l1,0.3
	c-0.2,0.2-0.3,0.5-0.4,0.8c-0.1,0.3-0.2,0.7-0.3,1c-0.1,0.4-0.1,0.7-0.1,1.1c0,0.4,0.1,0.8,0.2,1.1c0.1,0.7,0.5,1.3,0.9,1.8
	c0.4,0.4,1,0.5,1.5,0.4c0.4-0.1,0.7-0.3,0.9-0.6c0.2-0.4,0.3-0.8,0.4-1.2c0-0.5,0.1-1.1,0-1.8c0-0.7,0-1.3,0.1-2
	c0.1-0.5,0.2-0.9,0.5-1.3c0.3-0.4,0.8-0.6,1.2-0.7c0.6-0.2,1.2-0.1,1.7,0.1c0.5,0.2,1,0.5,1.3,1c0.4,0.5,0.7,1.2,0.8,1.8
	c0.1,0.4,0.2,0.9,0.2,1.3c0,0.4,0,0.8-0.1,1.2c-0.1,0.4-0.2,0.8-0.4,1.1L181.9,82.8z"/>
<path class="st0" d="M174.3,90.7c-0.1-0.5,0-1.1,0.1-1.6c0.1-0.5,0.4-1,0.7-1.4c0.3-0.4,0.7-0.7,1.2-1c0.5-0.3,1-0.4,1.5-0.5
	c0.7-0.1,1.4,0,2.1,0.2c0.6,0.2,1.2,0.6,1.6,1.2c0.4,0.6,0.7,1.2,0.8,1.9c0.1,0.7,0,1.4-0.2,2c-0.2,0.6-0.7,1.1-1.2,1.4l-0.4-0.9
	c0.4-0.3,0.6-0.6,0.8-1c0.2-0.4,0.2-0.9,0.2-1.4c-0.1-0.5-0.3-1-0.6-1.4c-0.3-0.4-0.8-0.7-1.2-0.9c-0.5-0.2-1.1-0.3-1.6-0.2
	c-0.6,0.1-1.1,0.3-1.5,0.6c-0.4,0.3-0.8,0.7-1,1.2c-0.2,0.5-0.3,1-0.2,1.5c0,0.3,0.1,0.7,0.3,1c0.1,0.3,0.3,0.5,0.6,0.8
	c0.2,0.2,0.5,0.3,0.7,0.4l-0.2,1c-0.4-0.1-0.8-0.3-1.1-0.6c-0.3-0.3-0.6-0.6-0.8-1C174.4,91.6,174.3,91.2,174.3,90.7z"/>
<path class="st0" d="M181.9,98.9c0-0.6-0.3-1.2-0.6-1.8c-0.4-0.5-0.9-0.8-1.5-1l-4.9,0.2v-1l7.8-0.3v1l-1.9,0.1c0.5,0.2,1,0.6,1.4,1
	c0.3,0.4,0.6,0.9,0.6,1.4v0.3c0,0.1,0,0.1,0,0.2L181.9,98.9z"/>
<path class="st0" d="M175,100.5l7.8,0.1v1l-7.8-0.1V100.5z M184.4,100.6h1.5v1h-1.5V100.6z"/>
<path class="st0" d="M174.5,107.6c0-0.6,0.3-1.2,0.7-1.7c0.4-0.5,0.8-0.9,1.4-1.1l-4.8-0.4l0.1-1l10.9,1l-0.1,0.9l-1.5-0.1
	c0.5,0.4,0.8,0.8,1.1,1.4c0.5,1,0.4,2.2-0.2,3.1c-0.3,0.4-0.6,0.8-1,1.1c-0.8,0.6-1.8,0.9-2.9,0.8c-0.7,0-1.4-0.3-2-0.6
	c-0.6-0.3-1-0.8-1.4-1.4C174.5,108.9,174.4,108.3,174.5,107.6z M175.4,107.4c0,0.4,0,0.8,0.2,1.2c0.1,0.4,0.3,0.7,0.6,0.9
	c0.3,0.3,0.6,0.5,0.9,0.6c0.4,0.2,0.7,0.3,1.1,0.3c0.4,0,0.8,0,1.2-0.1c0.4-0.1,0.7-0.3,1.1-0.5c0.3-0.2,0.6-0.5,0.8-0.9
	c0.2-0.3,0.3-0.7,0.4-1.1c0-0.3,0-0.6-0.1-0.8c-0.1-0.3-0.2-0.6-0.4-0.8c-0.2-0.3-0.3-0.5-0.6-0.7c-0.2-0.2-0.4-0.3-0.7-0.4
	l-2.4-0.2c-0.4,0.1-0.7,0.3-1,0.6c-0.3,0.2-0.6,0.5-0.8,0.9C175.6,106.6,175.5,107,175.4,107.4z"/>
<path class="st0" d="M173.6,116.3c0-0.1,0-0.2-0.1-0.4c-0.1-0.5-0.1-1,0-1.4c0.1-0.3,0.2-0.5,0.3-0.8c0.1-0.2,0.4-0.4,0.6-0.5
	c0.3-0.1,0.6-0.1,0.9-0.1l5.5,1l0.2-1.1l0.8,0.1l-0.2,1.1l2.6,0.5l-0.2,1l-2.6-0.5l-0.3,1.8l-0.8-0.1l0.3-1.8l-5.3-1
	c-0.2,0-0.5,0-0.7,0.2c-0.2,0.2-0.3,0.4-0.3,0.6c0,0.3,0,0.5,0,0.8c0,0.2,0.1,0.3,0.1,0.4L173.6,116.3z"/>
<path class="st0" d="M176.2,125.3c-0.2-0.1-0.4-0.2-0.6-0.4c-0.2-0.2-0.3-0.4-0.3-0.6c-0.1-0.2-0.1-0.5,0-0.7
	c0.1-0.2,0.2-0.4,0.4-0.6c0.2-0.2,0.4-0.3,0.6-0.3c0.2-0.1,0.5-0.1,0.7,0c0.2,0.1,0.4,0.2,0.6,0.4c0.2,0.2,0.3,0.4,0.3,0.6
	c0.1,0.2,0.1,0.5,0,0.7c-0.1,0.2-0.2,0.4-0.4,0.6c-0.2,0.2-0.4,0.3-0.6,0.3C176.7,125.4,176.4,125.4,176.2,125.3z"/>
<path class="st0" d="M169.1,129.6l9.6,4.6l-2,4c-0.2,0.4-0.5,0.7-0.8,1c-0.3,0.3-0.7,0.5-1.1,0.6c-0.4,0.1-0.8,0.2-1.3,0.1
	c-0.4,0-0.8-0.1-1.2-0.3c-0.4-0.2-0.8-0.5-1.2-0.9c-0.3-0.4-0.5-0.8-0.7-1.2c-0.1-0.5-0.1-0.9,0-1.4l-4.8,0.6l0.5-1.1l4.6-0.5
	l1.4-2.8l-3.5-1.7L169.1,129.6z M173,132.6l-1.5,3.1c-0.2,0.3-0.2,0.7-0.2,1.1c0.1,0.4,0.3,0.7,0.5,1c0.3,0.3,0.6,0.6,1,0.8
	c0.4,0.2,0.8,0.3,1.2,0.3c0.4,0,0.8-0.1,1.1-0.3c0.3-0.2,0.6-0.5,0.8-0.8l1.5-3.1L173,132.6z"/>
<path class="st0" d="M163.1,140.5c0.3-0.5,0.7-0.9,1.1-1.1c0.4-0.3,0.9-0.5,1.4-0.6c0.5-0.1,1-0.1,1.5,0c0.5,0.1,1,0.3,1.5,0.6
	c0.6,0.4,1.1,0.9,1.4,1.5c0.3,0.6,0.5,1.3,0.5,1.9c0,0.7-0.2,1.4-0.6,2c-0.4,0.6-0.9,1.1-1.6,1.4c-0.6,0.3-1.3,0.4-2,0.4
	c-0.7,0-1.4-0.3-1.9-0.6l-0.2-0.1l-0.1-0.1l3.6-5.6c-0.5-0.2-1-0.4-1.5-0.4c-0.5,0-1,0.1-1.4,0.3c-0.4,0.2-0.8,0.6-1.1,1
	c-0.3,0.4-0.4,0.9-0.4,1.4c0,0.5,0.1,1,0.4,1.4l-0.7,0.6c-0.2-0.4-0.4-0.7-0.4-1.2c-0.1-0.4-0.1-0.9,0-1.4
	C162.6,141.4,162.8,140.9,163.1,140.5z M168.4,140.5l-3.1,4.9c0.5,0.3,1,0.4,1.5,0.4c1,0,1.9-0.5,2.5-1.3c0.3-0.4,0.4-0.9,0.4-1.4
	c0-0.5-0.1-1-0.3-1.4C169.1,141.2,168.8,140.8,168.4,140.5z"/>
<path class="st0" d="M162.4,145.8c0.4,0.3,0.6,0.7,0.7,1.1c0.1,0.5,0.1,1-0.1,1.4c-0.2,0.6-0.5,1.1-0.9,1.5
	c-0.3,0.3-0.5,0.6-0.8,0.9c-0.3,0.3-0.6,0.5-0.9,0.7l0.5,0.4c0.4,0.4,1,0.6,1.6,0.5c0.6-0.1,1.1-0.4,1.5-0.9
	c0.3-0.3,0.5-0.7,0.6-1.1c0.1-0.5,0.2-0.9,0.3-1.4l0.8,0.1c0,0.6-0.1,1.1-0.3,1.7c-0.2,0.5-0.4,0.9-0.7,1.3
	c-0.5,0.7-1.2,1.1-2.1,1.3c-0.8,0.1-1.7-0.2-2.3-0.8l-2.8-2.3c-0.1-0.1-0.2-0.1-0.3-0.1c-0.1,0-0.2,0.1-0.3,0.1l-0.6-0.5l0.2-0.2
	c0-0.1,0.1-0.1,0.1-0.1c0.1-0.2,0.3-0.3,0.5-0.3c0.2,0,0.4,0,0.5,0.1l0.4,0.3c-0.1-0.6-0.1-1.1,0-1.7c0.1-0.6,0.4-1.1,0.8-1.6
	c0.3-0.4,0.7-0.7,1.1-0.9c0.4-0.2,0.8-0.3,1.3-0.2C161.7,145.4,162.1,145.5,162.4,145.8z M158.7,149.5c0,0.2,0.1,0.3,0.1,0.4
	c0.1,0.1,0.1,0.2,0.2,0.3l0.9,0.7c0.3-0.2,0.6-0.4,0.9-0.6c0.3-0.2,0.5-0.5,0.8-0.8c0.4-0.5,0.7-1,0.8-1.6c0.1-0.5-0.1-1-0.5-1.3
	c-0.2-0.2-0.5-0.3-0.8-0.3c-0.3,0-0.6,0-0.9,0.1c-0.3,0.1-0.6,0.4-0.8,0.6c-0.3,0.4-0.5,0.8-0.6,1.2
	C158.6,148.7,158.6,149.1,158.7,149.5z"/>
<path class="st0" d="M152.7,153.4c0.4-0.4,0.8-0.7,1.3-0.9c0.5-0.2,1-0.3,1.5-0.3c0.5,0,1,0.1,1.5,0.3c0.5,0.2,0.9,0.5,1.3,0.9
	c0.5,0.5,0.9,1.1,1.1,1.8c0.2,0.7,0.2,1.3,0,2c-0.2,0.7-0.5,1.3-1.1,1.8c-0.5,0.5-1.1,0.8-1.7,1c-0.6,0.2-1.2,0.1-1.8-0.1l0.5-0.9
	c0.4,0.1,0.9,0.1,1.3,0c0.4-0.1,0.8-0.4,1.2-0.7c0.4-0.4,0.6-0.8,0.7-1.3c0.1-0.5,0.1-1-0.1-1.5c-0.2-0.5-0.5-1-0.9-1.4
	c-0.4-0.4-0.9-0.7-1.4-0.9c-0.5-0.2-1-0.2-1.5-0.1c-0.8,0.2-1.5,0.8-1.9,1.5c-0.1,0.3-0.2,0.6-0.2,0.9c0,0.3,0,0.6,0.1,0.8l-0.9,0.5
	c-0.2-0.4-0.2-0.8-0.2-1.2c0-0.4,0.1-0.9,0.3-1.3C152.1,154.1,152.3,153.7,152.7,153.4z"/>
<path class="st0" d="M146.7,159.3c0-0.1,0.1-0.2,0.2-0.4c0.1-0.2,0.2-0.4,0.3-0.6c0.2-0.2,0.3-0.4,0.5-0.6c0.2-0.2,0.5-0.3,0.7-0.4
	c0.3-0.1,0.5-0.1,0.8,0c0.3,0.1,0.5,0.3,0.7,0.5l3.6,4.3l0.8-0.7l0.5,0.6l-0.8,0.7l1.7,2l-0.8,0.7l-1.7-2l-1.4,1.1l-0.5-0.6l1.4-1.2
	l-3.4-4.1c-0.2-0.2-0.4-0.3-0.6-0.3c-0.2,0-0.4,0.1-0.6,0.3c-0.2,0.2-0.4,0.4-0.5,0.6c-0.1,0.1-0.1,0.3-0.2,0.4L146.7,159.3z"/>
<path class="st0" d="M143,167.9c-0.3-0.4-0.3-0.9-0.1-1.3c0.1-0.2,0.3-0.4,0.5-0.5c0.2-0.1,0.4-0.2,0.6-0.2c0.2,0,0.5,0,0.7,0.1
	c0.2,0.1,0.4,0.3,0.5,0.5c0.1,0.2,0.2,0.4,0.2,0.7c0,0.2,0,0.5-0.1,0.7c-0.1,0.2-0.3,0.4-0.4,0.5c-0.2,0.1-0.4,0.2-0.7,0.2
	c-0.2,0-0.5,0-0.7-0.1C143.3,168.3,143.1,168.1,143,167.9z"/>
<path class="st0" d="M139.8,176.2l-7.4-6.8l0.5,10.1l-1,0.5l-0.5-11.5l0.9-0.4l8.5,7.8L139.8,176.2z"/>
<path class="st0" d="M126.3,170.5l2.7,7.3l-0.9,0.4l-2.7-7.3L126.3,170.5z M129.5,179.4l0.5,1.4l-1,0.4l-0.5-1.4L129.5,179.4z"/>
<path class="st0" d="M119.8,172.9c0.1-0.1,0.2-0.2,0.3-0.3c0.2-0.1,0.3-0.3,0.5-0.4c0.2-0.1,0.5-0.2,0.7-0.3
	c0.3-0.1,0.6-0.1,0.8-0.1c0.3,0,0.5,0.1,0.7,0.3c0.2,0.2,0.4,0.5,0.4,0.7l1.6,5.4l1-0.3l0.2,0.8l-1,0.3l0.8,2.5l-1,0.3l-0.8-2.5
	l-1.7,0.5l-0.2-0.8l1.7-0.5l-1.6-5.1c-0.1-0.2-0.3-0.4-0.5-0.5c-0.2-0.1-0.5-0.1-0.7,0c-0.3,0.1-0.5,0.2-0.7,0.4
	c-0.1,0.1-0.2,0.2-0.3,0.3L119.8,172.9z"/>
<path class="st0" d="M115.4,173.5c0.5-0.1,1.1-0.1,1.6,0c0.5,0.1,1,0.3,1.4,0.6c0.4,0.3,0.8,0.7,1.1,1.1c0.3,0.5,0.5,1,0.6,1.5
	c0.3,1.4-0.1,2.8-1.1,3.8c-0.5,0.5-1.2,0.8-1.9,0.9c-0.7,0.2-1.4,0.1-2.1-0.1c-0.6-0.2-1.2-0.6-1.6-1.1c-0.5-0.5-0.8-1.2-0.9-1.8
	c0-0.1,0-0.1-0.1-0.2c0-0.1,0-0.1,0-0.2l6.6-1.4c-0.2-0.5-0.4-1-0.8-1.4c-0.3-0.4-0.8-0.6-1.2-0.8c-0.5-0.2-1-0.2-1.4-0.1
	c-0.5,0.1-1,0.3-1.3,0.7c-0.4,0.3-0.6,0.7-0.7,1.2l-0.9-0.1c0.1-0.4,0.3-0.8,0.5-1.1c0.3-0.4,0.6-0.7,1-0.9
	C114.4,173.8,114.9,173.6,115.4,173.5z M119.1,177.2l-5.7,1.2c0.1,0.5,0.4,1,0.8,1.4c0.3,0.4,0.8,0.6,1.2,0.8c0.5,0.1,1,0.2,1.4,0.1
	c0.5-0.1,0.9-0.3,1.3-0.6c0.4-0.3,0.6-0.7,0.8-1.2C119.1,178.2,119.2,177.7,119.1,177.2z"/>
<path class="st0" d="M104,180.3c0-0.2,0-0.5,0.1-0.7c0.1-0.2,0.3-0.4,0.5-0.5c0.2-0.1,0.4-0.2,0.6-0.2c0.2,0,0.5,0,0.7,0.1
	c0.2,0.1,0.4,0.3,0.5,0.4c0.1,0.2,0.2,0.4,0.2,0.7c0,0.2,0,0.5-0.1,0.7c-0.1,0.2-0.3,0.4-0.5,0.5c-0.2,0.1-0.4,0.2-0.7,0.2
	c-0.2,0-0.5,0-0.7-0.1c-0.2-0.1-0.4-0.3-0.5-0.5C104.1,180.8,104,180.5,104,180.3z"/>
<path class="st0" d="M89.4,179l2.4,0.2l-0.1,0.8l-3.3-0.3l0.5-5.2l0.9,0.1L89.4,179z M93.2,174.8c0.7,0.1,1.3,0.3,1.9,0.6
	c0.6,0.4,1.1,0.8,1.5,1.4c0.4,0.5,0.7,1.2,0.9,1.8c0.2,0.6,0.3,1.3,0.2,2c-0.1,0.7-0.2,1.4-0.6,2c-0.3,0.6-0.7,1.2-1.2,1.6
	c-0.5,0.4-1,0.8-1.7,1c-0.6,0.2-1.3,0.3-2,0.3c-0.9,0-1.8-0.3-2.5-0.9c-0.6-0.5-1.1-1.1-1.4-1.8l0.9-0.5c0.2,0.6,0.7,1.2,1.2,1.6
	c0.6,0.4,1.2,0.6,1.9,0.6c0.6,0.1,1.1,0,1.6-0.2c0.5-0.2,0.9-0.5,1.3-0.9c0.4-0.4,0.7-0.8,0.9-1.4c0.2-0.5,0.4-1.1,0.4-1.6
	c0.1-0.6,0-1.2-0.1-1.7c-0.1-0.5-0.4-1-0.7-1.5c-0.3-0.4-0.7-0.8-1.2-1.1c-0.5-0.3-1-0.4-1.5-0.5c-0.6-0.1-1.3,0.1-1.9,0.3
	c-0.7,0.3-1.3,0.8-1.8,1.4l0.1-1.1C90.4,175.2,91.8,174.7,93.2,174.8L93.2,174.8z"/>
<path class="st0" d="M85.4,183.4l-0.3,1.5l-1-0.2l0.3-1.5L85.4,183.4z M87.1,174.1l-1.4,7.7l-1-0.2l1.4-7.7L87.1,174.1z"/>
<path class="st0" d="M80.2,172.9l0.4-0.1c0.2,0,0.4-0.1,0.6-0.1c0.3,0,0.5,0,0.8,0.1c0.3,0.1,0.5,0.2,0.8,0.4
	c0.2,0.2,0.4,0.4,0.5,0.6c0.1,0.3,0.1,0.6,0,0.9l-1.3,5.5l1.1,0.3l-0.2,0.8l-1-0.3l-0.6,2.6l-1-0.2l0.6-2.6l-1.8-0.4l0.2-0.8L81,180
	l1.2-5.2c0.1-0.2,0-0.5-0.2-0.7c-0.1-0.2-0.3-0.3-0.6-0.4c-0.3-0.1-0.5-0.1-0.8,0c-0.2,0-0.3,0.1-0.4,0.1L80.2,172.9z"/>
<path class="st0" d="M71.1,175.1c0.2-0.4,0.5-0.8,1-0.9c0.2,0,0.5,0,0.7,0.1c0.4,0.2,0.8,0.5,0.9,1c0,0.2,0,0.5-0.1,0.7
	c-0.1,0.2-0.2,0.4-0.4,0.6c-0.2,0.1-0.4,0.2-0.6,0.3c-0.2,0-0.5,0-0.7-0.1c-0.2-0.1-0.4-0.2-0.6-0.4c-0.1-0.2-0.2-0.4-0.3-0.6
	C71,175.5,71.1,175.3,71.1,175.1z"/>
<path class="st0" d="M62.6,177.4l1.1-10l-7.8,6.4l-1-0.5l9-7.3l0.8,0.5l-1.2,11.5L62.6,177.4z"/>
<path class="st0" d="M57.3,161.7c0.4,0.3,0.8,0.7,1.1,1.1c0.3,0.4,0.4,0.9,0.5,1.4c0.1,0.5,0.1,1-0.1,1.5c-0.1,0.5-0.3,1-0.7,1.5
	c-0.4,0.6-0.9,1-1.6,1.4c-0.6,0.3-1.3,0.5-2,0.4c-0.7,0-1.4-0.3-2-0.7c-0.6-0.4-1.1-0.9-1.3-1.6c-0.3-0.6-0.4-1.3-0.3-2
	c0.1-0.7,0.3-1.3,0.7-1.9l0.1-0.2c0,0,0.1-0.1,0.1-0.1l5.5,3.8c0.3-0.5,0.4-1,0.5-1.5c0-0.5-0.1-1-0.3-1.4c-0.2-0.4-0.5-0.8-0.9-1.1
	c-0.4-0.3-0.9-0.5-1.4-0.5c-0.5-0.1-1,0-1.4,0.3l-0.6-0.7c0.4-0.2,0.8-0.4,1.2-0.4c0.5-0.1,0.9,0,1.4,0.1
	C56.4,161.2,56.9,161.4,57.3,161.7z M57.2,167l-4.8-3.3c-0.3,0.4-0.4,1-0.5,1.5c0,0.5,0.1,1,0.3,1.4c0.2,0.5,0.6,0.8,1,1.1
	c0.4,0.3,0.9,0.5,1.3,0.5c0.5,0,1,0,1.4-0.3C56.4,167.7,56.9,167.4,57.2,167z"/>
<path class="st0" d="M45.6,161.5c0.5,0.4,1.1,0.7,1.7,0.7c0.6,0.1,1.3-0.1,1.8-0.4l3.1-3.7l0.8,0.6l-5,6l-0.7-0.6l1.2-1.4
	c-0.5,0.2-1.1,0.4-1.7,0.3c-0.5,0-1-0.2-1.4-0.5l-0.2-0.2l-0.1-0.1L45.6,161.5z"/>
<path class="st0" d="M47,153c0.8,0.7,1.2,1.8,1.1,2.8c0,0.5-0.1,1-0.3,1.5c-0.2,0.5-0.5,0.9-0.9,1.3c-0.5,0.5-1.1,0.9-1.8,1.1
	c-0.6,0.2-1.3,0.2-2,0.1c-0.7-0.2-1.3-0.5-1.8-1.1c-0.5-0.5-0.8-1.1-1-1.7c-0.2-0.6-0.1-1.2,0.1-1.8l0.9,0.5c-0.1,0.4-0.1,0.9,0,1.3
	c0.1,0.4,0.4,0.8,0.7,1.2c0.4,0.4,0.8,0.6,1.3,0.7c0.5,0.1,1,0.1,1.5-0.1c1-0.4,1.8-1.2,2.2-2.3c0.1-0.5,0.2-1,0.1-1.5
	c-0.1-0.5-0.3-0.9-0.7-1.3c-0.2-0.2-0.5-0.4-0.8-0.6c-0.3-0.1-0.6-0.2-0.9-0.2c-0.3,0-0.6,0-0.8,0.1l-0.5-0.9
	c0.4-0.2,0.8-0.2,1.2-0.2c0.4,0,0.9,0.1,1.3,0.3C46.2,152.4,46.7,152.7,47,153z"/>
<path class="st0" d="M41.7,147.1c0.3,0.4,0.6,0.9,0.7,1.4c0.1,0.5,0.2,1,0.1,1.5c-0.1,0.5-0.2,1-0.5,1.5c-0.3,0.5-0.6,0.9-1,1.2
	c-0.5,0.4-1.2,0.7-1.9,0.9c-0.7,0.1-1.4,0.1-2-0.2c-0.7-0.2-1.3-0.7-1.7-1.2c-0.5-0.5-0.8-1.2-0.8-1.9c-0.1-0.7,0-1.4,0.3-2
	c0.3-0.6,0.7-1.2,1.2-1.6l0.2-0.1l0.1-0.1l4.2,5.2c0.4-0.4,0.7-0.8,0.8-1.3c0.2-0.5,0.2-1,0.2-1.4c-0.1-0.5-0.3-0.9-0.6-1.3
	c-0.3-0.4-0.7-0.7-1.2-0.9c-0.4-0.2-0.9-0.2-1.4-0.1l-0.4-0.8c0.4-0.1,0.8-0.1,1.3-0.1c0.5,0.1,0.9,0.2,1.3,0.5
	C41,146.4,41.4,146.7,41.7,147.1z M40.1,152.1l-3.6-4.5c-0.4,0.3-0.7,0.8-0.9,1.3c-0.3,0.9-0.2,2,0.5,2.8c0.3,0.4,0.7,0.7,1.2,0.9
	c0.5,0.2,0.9,0.2,1.4,0.2C39.1,152.6,39.6,152.4,40.1,152.1L40.1,152.1z"/>
<path class="st0" d="M29.3,149.1l-0.6-0.8l7.7-5.2c0.3-0.2,0.5-0.4,0.5-0.6c0-0.2,0-0.4-0.1-0.5c-0.1-0.2-0.2-0.3-0.3-0.4l-0.4-0.3
	l0.6-0.6c0.2,0.1,0.4,0.3,0.6,0.5c0.2,0.2,0.3,0.4,0.5,0.6c0.2,0.3,0.4,0.7,0.3,1.1c-0.1,0.4-0.3,0.8-0.7,1L29.3,149.1z"/>
<path class="st0" d="M28.6,136.7c0.2-0.1,0.4-0.2,0.7-0.2c0.2,0,0.5,0.1,0.7,0.2c0.2,0.1,0.4,0.3,0.5,0.5c0.1,0.2,0.2,0.4,0.2,0.7
	c0,0.2-0.1,0.5-0.2,0.7c-0.1,0.2-0.3,0.4-0.5,0.5c-0.2,0.1-0.4,0.2-0.7,0.1c-0.5,0-0.9-0.3-1.2-0.7c-0.1-0.2-0.2-0.4-0.2-0.7
	c0-0.2,0.1-0.5,0.2-0.7C28.2,137,28.4,136.8,28.6,136.7z"/>
<path class="st0" d="M21.9,130.5l8.3-2.8l0.3,1l-10.1,3.4l-0.3-0.8l6.1-9.5l-8.4,2.9l-0.3-1l10.1-3.4l0.3,0.9L21.9,130.5z"/>
<path class="st0" d="M26.6,114.9c0.1,0.5,0.1,1.1,0,1.6c-0.1,0.5-0.3,1-0.6,1.4c-0.3,0.4-0.7,0.8-1.1,1.1c-0.5,0.3-1,0.5-1.5,0.6
	c-0.7,0.1-1.4,0.1-2.1-0.1c-0.7-0.2-1.2-0.6-1.7-1.1c-0.5-0.5-0.8-1.2-0.9-1.9c-0.2-0.7-0.1-1.4,0.2-2.1c0.2-0.6,0.6-1.2,1.2-1.6
	c0.5-0.4,1.2-0.7,1.8-0.9h0.2h0.2l1.3,6.6c0.5-0.1,1-0.4,1.4-0.8c0.4-0.3,0.6-0.8,0.8-1.2c0.2-0.5,0.2-1,0.1-1.4
	c-0.1-0.5-0.3-1-0.7-1.3c-0.3-0.4-0.7-0.6-1.2-0.7l0.1-0.9c0.4,0.1,0.8,0.3,1.1,0.5c0.4,0.3,0.7,0.6,0.9,1
	C26.3,114,26.5,114.4,26.6,114.9z M22.8,118.6l-1.1-5.7c-0.5,0.1-1,0.4-1.4,0.7c-0.7,0.7-1.1,1.7-0.9,2.7c0.1,0.5,0.3,0.9,0.6,1.3
	c0.3,0.4,0.7,0.6,1.2,0.8C21.8,118.6,22.3,118.6,22.8,118.6z"/>
<path class="st0" d="M24.9,106.1c0.1,0.1,0.1,0.2,0.2,0.4c0.1,0.2,0.2,0.4,0.3,0.6c0.1,0.2,0.2,0.5,0.2,0.8c0,0.3,0,0.6-0.1,0.8
	c-0.1,0.3-0.2,0.5-0.4,0.7c-0.2,0.2-0.5,0.3-0.8,0.3l-5.6,0.6l0.1,1.1l-0.8,0.1l-0.1-1.1l-2.6,0.3l-0.1-1l2.6-0.3l-0.2-1.8l0.8-0.1
	l0.2,1.8l5.3-0.6c0.2,0,0.5-0.2,0.6-0.4c0.1-0.2,0.2-0.4,0.1-0.7c0-0.3-0.1-0.5-0.2-0.7c-0.1-0.1-0.2-0.3-0.3-0.4L24.9,106.1z"/>
<path class="st0" d="M15.7,105.3l-1.5,0.1l-0.1-1l1.5-0.1L15.7,105.3z M25.1,104.8l-7.8,0.4l-0.1-1l7.8-0.4L25.1,104.8z"/>
<path class="st0" d="M14.1,101.8v-1l9.2-0.1c0.3,0,0.6,0,0.8-0.2c0.1-0.1,0.2-0.3,0.2-0.5c0-0.2,0-0.4-0.1-0.5
	c0-0.2-0.1-0.3-0.1-0.5l0.8-0.2c0.1,0.2,0.2,0.5,0.2,0.7c0,0.2,0.1,0.5,0.1,0.7c0.1,0.8-0.5,1.5-1.3,1.5c-0.1,0-0.2,0-0.2,0
	L14.1,101.8z"/>
<path class="st0" d="M15.6,97.2h-1.5v-1l1.5,0.1V97.2z M25,97.6l-7.8-0.3v-1l7.8,0.3L25,97.6z"/>
<path class="st0" d="M25.2,94l-7-0.6l-0.1,1.1l-0.8-0.1l0.1-1.1h-0.2c-0.6,0-1.1-0.2-1.6-0.4c-0.4-0.2-0.8-0.5-1-0.9
	c-0.2-0.4-0.3-0.8-0.3-1.3c0-0.3,0.1-0.6,0.2-0.9c0.1-0.3,0.2-0.5,0.4-0.7l0.7,0.4c-0.1,0.1-0.2,0.3-0.3,0.5
	c-0.1,0.2-0.1,0.4-0.2,0.6c-0.1,0.4,0.1,0.9,0.4,1.1c0.5,0.3,1,0.5,1.6,0.5h0.2l0.2-2.1l0.8,0.1l-0.2,2.1l7,0.7L25.2,94z"/>
<path class="st0" d="M28.1,89.6c0-0.1,0-0.3,0.1-0.4c0-0.1,0-0.2,0-0.3c0-0.1-0.1-0.3-0.2-0.4c-0.2-0.2-0.4-0.4-0.6-0.5
	c-0.3-0.2-0.8-0.5-1.4-0.9l-8.3,2l0.2-1.1l7.2-1.6L19,82.6l0.2-1l9.2,5.8c0.2,0.1,0.3,0.2,0.5,0.4c0.1,0.2,0.2,0.4,0.3,0.6
	c0,0.3,0,0.5,0,0.8c0,0.1,0,0.2,0,0.3c0,0.1-0.1,0.2-0.1,0.3L28.1,89.6z"/>
<path class="st0" d="M24.1,74.2c0.2,0.1,0.4,0.2,0.6,0.4c0.2,0.2,0.3,0.4,0.3,0.6c0.1,0.2,0.1,0.5,0,0.7c-0.1,0.2-0.2,0.4-0.4,0.6
	c-0.2,0.2-0.4,0.3-0.6,0.3c-0.2,0.1-0.5,0.1-0.7,0c-0.2-0.1-0.4-0.2-0.6-0.4c-0.1-0.2-0.3-0.4-0.3-0.6c-0.1-0.5,0.1-1,0.4-1.3
	c0.2-0.2,0.4-0.3,0.6-0.3C23.7,74.1,23.9,74.1,24.1,74.2z"/>
<path class="st0" d="M33.2,66.2c-0.3,0.7-0.8,1.3-1.4,1.7c-0.5,0.4-1.1,0.6-1.7,0.7c-0.6,0.1-1.3,0-1.9-0.1
	c-0.6-0.2-1.3-0.4-1.9-0.7l-4.8-2.4l0.5-0.9l4.8,2.4c0.5,0.3,1,0.4,1.5,0.6c0.5,0.1,1,0.2,1.5,0.1c0.5,0,1-0.2,1.4-0.5
	c0.5-0.3,0.8-0.8,1.1-1.3c0.3-0.5,0.4-1.1,0.4-1.7c0-0.5-0.2-1-0.4-1.4c-0.3-0.4-0.6-0.8-1-1.1C31,61.2,30.5,61,30,60.7l-4.8-2.4
	l0.5-0.9l4.8,2.4c0.6,0.3,1.2,0.7,1.7,1.1c0.5,0.4,0.9,0.9,1.2,1.5c0.3,0.5,0.4,1.2,0.4,1.8C33.8,64.9,33.6,65.6,33.2,66.2z"/>
<path class="st0" d="M36.5,60.2l-9-5.7l0.6-0.9l9,5.8L36.5,60.2z"/>
<path class="st0" d="M34.4,44.9L38.6,57L37.9,58l-4.2-12.1L34.4,44.9z"/>
<path class="st0" d="M47,47.3c-0.5,0.5-1.1,0.9-1.8,1.2c-0.6,0.2-1.2,0.2-1.8,0.1c-0.6-0.1-1.2-0.4-1.7-0.7
	c-0.6-0.3-1.1-0.8-1.6-1.2l-3.8-3.8l0.7-0.7l3.8,3.8c0.4,0.4,0.8,0.7,1.3,1c0.4,0.3,0.9,0.5,1.4,0.6c0.5,0.1,1,0.1,1.4,0
	c0.5-0.2,1-0.5,1.4-0.9c0.4-0.4,0.7-0.9,0.9-1.5c0.1-0.5,0.1-1,0-1.5c-0.1-0.5-0.3-1-0.6-1.4c-0.3-0.5-0.6-0.9-1-1.3l-3.8-3.8
	l0.8-0.8l3.8,3.8c0.5,0.5,0.9,1,1.3,1.6c0.3,0.5,0.6,1.1,0.7,1.8c0.1,0.6,0,1.2-0.2,1.8C47.9,46.1,47.5,46.8,47,47.3z"/>
<path class="st0" d="M45.3,34.2l5.6,1.6L50.8,30l0.9-0.7V36l6.3,1.8l-1,0.7L51.8,37v5.6l-0.9,0.7v-6.6l-6.5-1.8L45.3,34.2z"/>
<path class="st0" d="M62.2,29.5c0.1,0.2,0.2,0.4,0.2,0.7c0,0.2-0.1,0.5-0.2,0.7c-0.2,0.4-0.7,0.7-1.2,0.7c-0.2,0-0.5-0.1-0.7-0.2
	c-0.2-0.1-0.4-0.3-0.5-0.5c-0.1-0.2-0.2-0.4-0.2-0.7c0-0.2,0.1-0.5,0.2-0.7c0.2-0.4,0.7-0.7,1.2-0.7c0.2,0,0.5,0.1,0.7,0.2
	C61.9,29.1,62.1,29.2,62.2,29.5z"/>
</svg>
