<?xml version="1.0" encoding="utf-8"?>
<!-- Generator: Adobe Illustrator 22.1.0, SVG Export Plug-In . SVG Version: 6.00 Build 0)  -->
<svg version="1.1" id="Layer_1" xmlns="http://www.w3.org/2000/svg" xmlns:xlink="http://www.w3.org/1999/xlink" x="0px" y="0px"
	 viewBox="0 0 24 24" style="enable-background:new 0 0 24 24;" xml:space="preserve">
<style type="text/css">
	.st0{fill:#666666;}
</style>
<g>
	<path class="st0" d="M19,2H5C4.4,2,4,2.4,4,3s0.4,1,1,1h14c0.6,0,1-0.4,1-1S19.6,2,19,2z"/>
	<path class="st0" d="M12.7,6.3c-0.1-0.1-0.2-0.2-0.3-0.2c-0.2-0.1-0.5-0.1-0.8,0c-0.1,0.1-0.2,0.1-0.3,0.2l-6,6
		c-0.4,0.4-0.4,1,0,1.4s1,0.4,1.4,0L11,9.4V21c0,0.6,0.4,1,1,1s1-0.4,1-1V9.4l4.3,4.3c0.2,0.2,0.5,0.3,0.7,0.3s0.5-0.1,0.7-0.3
		c0.4-0.4,0.4-1,0-1.4L12.7,6.3z"/>
</g>
</svg>
