<?xml version="1.0" encoding="utf-8"?>
<!-- Generator: Adobe Illustrator 22.1.0, SVG Export Plug-In . SVG Version: 6.00 Build 0)  -->
<svg version="1.1" id="Layer_1" xmlns="http://www.w3.org/2000/svg" xmlns:xlink="http://www.w3.org/1999/xlink" x="0px" y="0px"
	 viewBox="0 0 24 20" style="enable-background:new 0 0 24 20;" xml:space="preserve">
<style type="text/css">
	.st0{fill:#666666;}
</style>
<path id="Vector" class="st0" d="M0,18.3C0,19.3,0.7,20,1.7,20h20.7c0.9,0,1.7-0.7,1.7-1.7l0,0c0-0.9-0.7-1.7-1.7-1.7H1.7
	C0.7,16.7,0,17.4,0,18.3L0,18.3z M0,10c0,0.9,0.7,1.7,1.7,1.7h20.7c0.9,0,1.7-0.7,1.7-1.7l0,0c0-0.9-0.7-1.7-1.7-1.7H1.7
	C0.7,8.3,0,9.1,0,10L0,10z M1.7,0C0.7,0,0,0.7,0,1.7l0,0c0,0.9,0.7,1.7,1.7,1.7h20.7c0.9,0,1.7-0.7,1.7-1.7l0,0
	C24,0.7,23.3,0,22.3,0H1.7z"/>
</svg>
