<svg id="Layer_1" data-name="Layer 1" xmlns="http://www.w3.org/2000/svg" viewBox="0 0 461.52 461.52"><defs><style>.cls-1{fill:#fff;}</style></defs><title>pi-1b</title><path d="M97.48,651.65H67.24V190.13h39.6v45.11H74.49V281.8h27.66v46.14H88.31v46.28H83.7v46.62h4.67v92.5h23.27V190.13h27.6v45.1h-23v46.46h12c1.79,0,1.79,0,1.79,1.83v42.84c0,1.74,0,1.74,1.76,1.74h24.6c.51,0,1,0,1.58-.07V190.13h41.52v45.09h-1.79c-8.24,0-16.48,0-24.71,0-1.09,0-1.33.32-1.33,1.35q0,21.84,0,43.68v1.55h13.92V325c0,3.06,0,3.07,3,3.07h6.21v46.15h-4.48v46.57h4.56V651.65H158V375.33c0-.34,0-.69-.06-1.05H116.25v46.53h4.43v46.12h-4.44v46.48c4.15,0,8.23.05,12.3,0,1.25,0,1.51.37,1.51,1.56q-.06,44.68,0,89.38v1.8h9.22v45.53h-27.6q0-45.35,0-90.68c0-1.11-.29-1.39-1.4-1.39-11.4,0-22.79,0-34.19,0-.53,0-1.07.06-1.55.09v46.45h23v19.6Z" transform="translate(-67.24 -190.13)"/><path d="M245.8,651.65H204.28c0-.44,0-.88,0-1.32V314.18q0-62,0-124h23v45.14H208.88v46.39a3.07,3.07,0,0,0,.38,0c8.68,0,17.35,0,26,0,1.19,0,1.36.4,1.35,1.43q0,21.42,0,42.84c0,1.94,0,1.94-2,1.94H213.34v46.36h-4.45v46.44h41.73v-166q0-32.28,0-64.56h4.56v45.19c8.88,0,17.6,0,26.32,0,1.09,0,1.52.2,1.52,1.42q0,44.94,0,89.87v1.33H259.69v46.32h-4.44V467h41.69V191.33c0-.4,0-.8,0-1.2h37v91.49H306.13c0,.48-.06.83-.06,1.19q0,22,0,44c0,1,.33,1.28,1.31,1.27,5.71,0,11.42,0,17.27,0v46.32h4.6V420.6h-18.4v92.82h23v46.25h-4.56v46.39H310.77v1q0,20.82,0,41.64c0,1,0,2,.06,3H296.92c0-.12,0-.24,0-.36q0-22.18,0-44.37c0-.27,0-.54,0-.86h-4.72v1.22q0,20.75,0,41.5c0,1,0,1.91-.05,2.87H250.6c0-.12,0-.24,0-.36V468.22c0-.43,0-.85-.06-1.34-4.32,0-8.52,0-12.71,0-1,0-1.25.35-1.25,1.3q0,21.78,0,43.55v1.54H213.47v92.94H245.8Zm23.27-92H297v-1.14c0-14.6,0-29.19,0-43.79,0-1.21-.26-1.55-1.5-1.55q-12.66.09-25.31,0c-.93,0-1.12.28-1.12,1.16q0,21.66,0,43.31Z" transform="translate(-67.24 -190.13)"/><path d="M389.8,190.13h22.8c0,.24,0,.48,0,.72q0,21.71,0,43.43c0,.78-.29,1-1,.95-2,0-4,0-6,0h-7v6.33q0,19.5,0,39c0,.8.09,1.2,1.1,1.2,8.51-.05,17,0,25.55,0,.35,0,.7,0,1.06,0V328H394.17a4.3,4.3,0,0,0-.05.48q0,22.44,0,44.88c0,.95.37,1.12,1.21,1.12,5.16,0,10.31,0,15.47,0h1.77v46.2H394.19v46.52h37c0,.49.06.84.06,1.19q0,21.78,0,43.55c0,1-.27,1.37-1.34,1.37-9.88,0-19.76,0-29.64,0h-1.45v92.89H408v45.53h-64.8c0-.56.07-1.12.07-1.67V191.56c0-.48-.05-.95-.07-1.43h18.48v45.2H374c1.68,0,1.68,0,1.68,1.68q0,44.82,0,89.63c0,1.14.29,1.51,1.46,1.48,2.59-.09,5.18,0,7.78,0v46.16H357.16v46.58H370.9v46.11H352.45v46.39h37.24V191.55C389.69,191.08,389.76,190.6,389.8,190.13ZM371.09,559.64V606h18.48V559.64Z" transform="translate(-67.24 -190.13)"/><path d="M468.28,190.13v45h-4.52v46.33h-14v1.43q0,45.06,0,90.11c0,1.09.25,1.43,1.39,1.42,8.36-.05,16.72,0,25.08,0h1.38v1.21c0,14.52,0,29,0,43.56,0,1.14-.34,1.4-1.42,1.38-4.11-.05-8.22,0-12.48,0v46.33H454.4v46.35H442.16c-1.7,0-1.71,0-1.71,1.67v44.78H472.9v44c0,2.31,0,2.3-2.34,2.3h-19.8c-.27,0-.54,0-1,0v45.6H436.12c0-.68-.05-1.36-.05-2V191.69c0-.52,0-1,.05-1.56Z" transform="translate(-67.24 -190.13)"/><path d="M482.44,651.65c0-.68,0-1.36,0-2V191.69c0-.52,0-1,0-1.56h23a7.8,7.8,0,0,0-.09.83c0,13.75,0,27.5,0,41.26,0,3,.05,3-2.92,3-1.77,0-1.77,0-1.77,1.7q0,21.6,0,43.18v1.45H486.84V328.1H524v46.43l4.75-.32v46.56a7.85,7.85,0,0,0-1.27-.22H511.3c-.39,0-.78,0-1.31.07v92.65H486.87V559.8H505.3c0,.64.08,1.15.08,1.67q0,21.53,0,43.07c0,1.14-.28,1.51-1.45,1.49-5.16-.06-10.32,0-15.48,0h-1.69v1.38l0,44.27Z" transform="translate(-67.24 -190.13)"/><path class="cls-1" d="M292.12,651.65c0-1,.05-1.92.05-2.87q0-20.76,0-41.5v-1.22h4.72c0,.32,0,.59,0,.86q0,22.19,0,44.37c0,.12,0,.24,0,.36Z" transform="translate(-67.24 -190.13)"/></svg>